<svg width="29" height="28" viewBox="0 0 29 28" fill="none" xmlns="http://www.w3.org/2000/svg">
<g id="&#8;Icon_Arrow">
<g id="Group">
<path id="Vector" fill-rule="evenodd" clip-rule="evenodd" d="M10.8054 14.7563C10.6099 14.5592 10.5 14.2917 10.5 14.0129C10.5 13.7341 10.6099 13.4667 10.8054 13.2695L16.7065 7.32102C16.8028 7.22059 16.9179 7.14048 17.0451 7.08537C17.1724 7.03026 17.3093 7.00125 17.4478 7.00004C17.5863 6.99883 17.7237 7.02543 17.8519 7.0783C17.9801 7.13117 18.0965 7.20925 18.1945 7.30799C18.2924 7.40672 18.3699 7.52412 18.4223 7.65335C18.4748 7.78258 18.5012 7.92104 18.5 8.06066C18.4988 8.20028 18.47 8.33826 18.4153 8.46655C18.3606 8.59484 18.2812 8.71087 18.1815 8.80787L13.0179 14.0129L18.1815 19.218C18.3716 19.4163 18.4767 19.6819 18.4743 19.9576C18.4719 20.2333 18.3622 20.4971 18.1688 20.692C17.9754 20.887 17.7138 20.9976 17.4403 21C17.1668 21.0024 16.9033 20.8964 16.7065 20.7048L10.8054 14.7563Z" fill="white"/>
</g>
</g>
</svg>
