<svg width="29" height="28" viewBox="0 0 29 28" fill="none" xmlns="http://www.w3.org/2000/svg">
<g id="&#8;Icon_Arrow" clip-path="url(#clip0_98_1872)">
<g id="Group">
<path id="Vector" fill-rule="evenodd" clip-rule="evenodd" d="M18.1946 13.2437C18.3901 13.4408 18.5 13.7083 18.5 13.9871C18.5 14.2659 18.3901 14.5333 18.1946 14.7305L12.2935 20.679C12.1972 20.7794 12.0821 20.8595 11.9549 20.9146C11.8276 20.9697 11.6907 20.9987 11.5522 21C11.4137 21.0012 11.2763 20.9746 11.1481 20.9217C11.0199 20.8688 10.9035 20.7907 10.8055 20.692C10.7076 20.5933 10.6301 20.4759 10.5777 20.3467C10.5252 20.2174 10.4988 20.079 10.5 19.9393C10.5012 19.7997 10.53 19.6617 10.5847 19.5334C10.6394 19.4052 10.7188 19.2891 10.8185 19.1921L15.9821 13.9871L10.8185 8.78203C10.6284 8.58371 10.5233 8.31809 10.5257 8.04239C10.5281 7.76668 10.6378 7.50295 10.8312 7.30798C11.0246 7.11302 11.2862 7.00244 11.5597 7.00004C11.8332 6.99764 12.0967 7.10363 12.2935 7.29518L18.1946 13.2437Z" fill="white"/>
</g>
</g>
<defs>
<clipPath id="clip0_98_1872">
<rect width="28" height="28" fill="white" transform="translate(0.5)"/>
</clipPath>
</defs>
</svg>
