<svg width="20" height="21" viewBox="0 0 20 21" fill="none" xmlns="http://www.w3.org/2000/svg">
<g id="mingcute:delete-fill">
<g id="Group">
<path id="Vector" d="M15.8497 4.76759C16.0501 4.76759 16.2424 4.84723 16.3841 4.98898C16.5259 5.13073 16.6055 5.32299 16.6055 5.52346C16.6055 5.72392 16.5259 5.91618 16.3841 6.05793C16.2424 6.19968 16.0501 6.27932 15.8497 6.27932H15.0938L15.0915 6.33299L14.3863 16.2129C14.3592 16.5943 14.1885 16.9512 13.9087 17.2118C13.6289 17.4724 13.2607 17.6173 12.8784 17.6173H6.72638C6.34402 17.6173 5.97586 17.4724 5.69605 17.2118C5.41624 16.9512 5.24558 16.5943 5.21843 16.2129L4.51321 6.33374L4.5117 6.27932H3.75583C3.55537 6.27932 3.36311 6.19968 3.22136 6.05793C3.0796 5.91618 2.99997 5.72392 2.99997 5.52346C2.99997 5.32299 3.0796 5.13073 3.22136 4.98898C3.36311 4.84723 3.55537 4.76759 3.75583 4.76759H15.8497ZM11.3145 2.5C11.5149 2.5 11.7072 2.57964 11.8489 2.72139C11.9907 2.86314 12.0703 3.0554 12.0703 3.25586C12.0703 3.45633 11.9907 3.64859 11.8489 3.79034C11.7072 3.93209 11.5149 4.01173 11.3145 4.01173H8.29102C8.09055 4.01173 7.89829 3.93209 7.75654 3.79034C7.61479 3.64859 7.53515 3.45633 7.53515 3.25586C7.53515 3.0554 7.61479 2.86314 7.75654 2.72139C7.89829 2.57964 8.09055 2.5 8.29102 2.5H11.3145Z" fill="#EB022B"/>
</g>
</g>
</svg>
