<svg width="20" height="21" viewBox="0 0 20 21" fill="none" xmlns="http://www.w3.org/2000/svg">
<g id="ic:round-download" clip-path="url(#clip0_98_1680)">
<path id="Vector" d="M15.2457 7.55882H13.4286V1.67647C13.4286 1.02941 12.9143 0.5 12.2857 0.5H7.71429C7.08571 0.5 6.57143 1.02941 6.57143 1.67647V7.55882H4.75429C3.73714 7.55882 3.22286 8.82941 3.94286 9.57059L9.18857 14.9706C9.63429 15.4294 10.3543 15.4294 10.8 14.9706L16.0457 9.57059C16.7657 8.82941 16.2629 7.55882 15.2457 7.55882ZM2 19.3235C2 19.9706 2.51429 20.5 3.14286 20.5H16.8571C17.4857 20.5 18 19.9706 18 19.3235C18 18.6765 17.4857 18.1471 16.8571 18.1471H3.14286C2.51429 18.1471 2 18.6765 2 19.3235Z" fill="#4F4F4F"/>
</g>
<defs>
<clipPath id="clip0_98_1680">
<rect width="20" height="20" fill="white" transform="translate(0 0.5)"/>
</clipPath>
</defs>
</svg>
