<svg width="20" height="21" viewBox="0 0 20 21" fill="none" xmlns="http://www.w3.org/2000/svg">
<g id="ic:round-edit">
<path id="Vector" d="M2.5 15.05V17.5834C2.5 17.8167 2.68333 18 2.91667 18H5.45C5.55833 18 5.66667 17.9584 5.74167 17.875L14.8417 8.78336L11.7167 5.65836L2.625 14.75C2.54167 14.8334 2.5 14.9334 2.5 15.05ZM17.2583 6.36669C17.3356 6.28959 17.3969 6.19802 17.4387 6.09721C17.4805 5.9964 17.502 5.88833 17.502 5.77919C17.502 5.67005 17.4805 5.56198 17.4387 5.46117C17.3969 5.36036 17.3356 5.26878 17.2583 5.19169L15.3083 3.24169C15.2312 3.16444 15.1397 3.10315 15.0389 3.06133C14.938 3.01951 14.83 2.99799 14.7208 2.99799C14.6117 2.99799 14.5036 3.01951 14.4028 3.06133C14.302 3.10315 14.2104 3.16444 14.1333 3.24169L12.6083 4.76669L15.7333 7.89169L17.2583 6.36669Z" fill="#4F4F4F"/>
</g>
</svg>
