<svg xmlns="http://www.w3.org/2000/svg" width="24" height="25" viewBox="0 0 24 25" fill="none">
  <path d="M22.5 10.0625C22.5 16.625 12.7697 21.9369 12.3553 22.1562C12.2461 22.215 12.124 22.2458 12 22.2458C11.876 22.2458 11.7539 22.215 11.6447 22.1562C11.2303 21.9369 1.5 16.625 1.5 10.0625C1.50174 8.52146 2.11468 7.04404 3.20436 5.95436C4.29404 4.86468 5.77146 4.25174 7.3125 4.25C9.24844 4.25 10.9434 5.0825 12 6.48969C13.0566 5.0825 14.7516 4.25 16.6875 4.25C18.2285 4.25174 19.706 4.86468 20.7956 5.95436C21.8853 7.04404 22.4983 8.52146 22.5 10.0625Z" fill="currentColor"/>
</svg>