<svg width="22" height="23" viewBox="0 0 22 23" fill="none" xmlns="http://www.w3.org/2000/svg">
<path d="M12.5761 0.589267C12.1435 0.209876 11.5824 0 11.0008 0C10.4192 0 9.85808 0.209876 9.42543 0.589267L0.782571 8.16892C0.536549 8.38446 0.339735 8.6481 0.204912 8.94272C0.0700895 9.23734 0.000273821 9.55634 0 9.87901V20.6994C0 21.3096 0.248341 21.8947 0.690391 22.3262C1.13244 22.7576 1.73199 23 2.35714 23H5.5C6.12515 23 6.7247 22.7576 7.16675 22.3262C7.6088 21.8947 7.85714 21.3096 7.85714 20.6994V14.5645C7.85714 14.3611 7.93992 14.1661 8.08727 14.0223C8.23462 13.8785 8.43447 13.7977 8.64286 13.7977H13.3571C13.5655 13.7977 13.7654 13.8785 13.9127 14.0223C14.0601 14.1661 14.1429 14.3611 14.1429 14.5645V20.6994C14.1429 21.3096 14.3912 21.8947 14.8332 22.3262C15.2753 22.7576 15.8748 23 16.5 23H19.6429C20.268 23 20.8676 22.7576 21.3096 22.3262C21.7517 21.8947 22 21.3096 22 20.6994V9.87901C21.9999 9.55646 21.9304 9.23753 21.7958 8.94291C21.6613 8.6483 21.4647 8.3846 21.219 8.16892L12.5761 0.589267Z" fill="currentColor"/>
</svg>
