<svg width="28" height="28" viewBox="0 0 28 28" fill="none" xmlns="http://www.w3.org/2000/svg">
<g id="solar:menu-dots-bold">
<path id="Vector" d="M8.16667 14C8.16667 14.6188 7.92083 15.2123 7.48325 15.6499C7.04566 16.0875 6.45217 16.3333 5.83333 16.3333C5.21449 16.3333 4.621 16.0875 4.18342 15.6499C3.74583 15.2123 3.5 14.6188 3.5 14C3.5 13.3812 3.74583 12.7877 4.18342 12.3501C4.621 11.9125 5.21449 11.6667 5.83333 11.6667C6.45217 11.6667 7.04566 11.9125 7.48325 12.3501C7.92083 12.7877 8.16667 13.3812 8.16667 14ZM16.3333 14C16.3333 14.6188 16.0875 15.2123 15.6499 15.6499C15.2123 16.0875 14.6188 16.3333 14 16.3333C13.3812 16.3333 12.7877 16.0875 12.3501 15.6499C11.9125 15.2123 11.6667 14.6188 11.6667 14C11.6667 13.3812 11.9125 12.7877 12.3501 12.3501C12.7877 11.9125 13.3812 11.6667 14 11.6667C14.6188 11.6667 15.2123 11.9125 15.6499 12.3501C16.0875 12.7877 16.3333 13.3812 16.3333 14ZM24.5 14C24.5 14.6188 24.2542 15.2123 23.8166 15.6499C23.379 16.0875 22.7855 16.3333 22.1667 16.3333C21.5478 16.3333 20.9543 16.0875 20.5168 15.6499C20.0792 15.2123 19.8333 14.6188 19.8333 14C19.8333 13.3812 20.0792 12.7877 20.5168 12.3501C20.9543 11.9125 21.5478 11.6667 22.1667 11.6667C22.7855 11.6667 23.379 11.9125 23.8166 12.3501C24.2542 12.7877 24.5 13.3812 24.5 14Z" fill="currentColor"/>
</g>
</svg>
