<svg width="20" height="21" viewBox="0 0 20 21" fill="none" xmlns="http://www.w3.org/2000/svg">
<g id="fluent:people-team-20-filled">
<path id="Vector" d="M12.5 5C12.5 5.66304 12.2366 6.29893 11.7678 6.76777C11.2989 7.23661 10.663 7.5 10 7.5C9.33696 7.5 8.70107 7.23661 8.23223 6.76777C7.76339 6.29893 7.5 5.66304 7.5 5C7.5 4.33696 7.76339 3.70107 8.23223 3.23223C8.70107 2.76339 9.33696 2.5 10 2.5C10.663 2.5 11.2989 2.76339 11.7678 3.23223C12.2366 3.70107 12.5 4.33696 12.5 5ZM17.5 5.5C17.5 6.03043 17.2893 6.53914 16.9142 6.91421C16.5391 7.28929 16.0304 7.5 15.5 7.5C14.9696 7.5 14.4609 7.28929 14.0858 6.91421C13.7107 6.53914 13.5 6.03043 13.5 5.5C13.5 4.96957 13.7107 4.46086 14.0858 4.08579C14.4609 3.71071 14.9696 3.5 15.5 3.5C16.0304 3.5 16.5391 3.71071 16.9142 4.08579C17.2893 4.46086 17.5 4.96957 17.5 5.5ZM4.5 7.5C5.03043 7.5 5.53914 7.28929 5.91421 6.91421C6.28929 6.53914 6.5 6.03043 6.5 5.5C6.5 4.96957 6.28929 4.46086 5.91421 4.08579C5.53914 3.71071 5.03043 3.5 4.5 3.5C3.96957 3.5 3.46086 3.71071 3.08579 4.08579C2.71071 4.46086 2.5 4.96957 2.5 5.5C2.5 6.03043 2.71071 6.53914 3.08579 6.91421C3.46086 7.28929 3.96957 7.5 4.5 7.5ZM6 9.75C6 9.06 6.56 8.5 7.25 8.5H12.75C13.44 8.5 14 9.06 14 9.75V14.5C14 15.5609 13.5786 16.5783 12.8284 17.3284C12.0783 18.0786 11.0609 18.5 10 18.5C8.93913 18.5 7.92172 18.0786 7.17157 17.3284C6.42143 16.5783 6 15.5609 6 14.5V9.75ZM5 9.75C5 9.287 5.14 8.858 5.379 8.5H3.25C2.56 8.5 2 9.06 2 9.75V13.5C1.99995 13.9281 2.09154 14.3513 2.2686 14.7411C2.44566 15.1309 2.7041 15.4782 3.02655 15.7599C3.34901 16.0415 3.728 16.2508 4.13807 16.3738C4.54813 16.4968 4.97978 16.5307 5.404 16.473C5.13691 15.8495 4.99945 15.1783 5 14.5V9.75ZM15 14.5C15 15.2 14.856 15.868 14.596 16.473C14.728 16.491 14.8627 16.5 15 16.5C15.7956 16.5 16.5587 16.1839 17.1213 15.6213C17.6839 15.0587 18 14.2956 18 13.5V9.75C18 9.06 17.44 8.5 16.75 8.5H14.621C14.861 8.858 15 9.287 15 9.75V14.5Z" fill="#4F4F4F"/>
</g>
</svg>
