<svg width="18" height="19" viewBox="0 0 18 19" fill="none" xmlns="http://www.w3.org/2000/svg">
<g id="mingcute:add-fill">
<g id="Group">
<path id="Vector" d="M7.875 15.5C7.875 15.7984 7.99353 16.0845 8.20451 16.2955C8.41548 16.5065 8.70163 16.625 9 16.625C9.29837 16.625 9.58452 16.5065 9.7955 16.2955C10.0065 16.0845 10.125 15.7984 10.125 15.5V10.625H15C15.2984 10.625 15.5845 10.5065 15.7955 10.2955C16.0065 10.0845 16.125 9.79837 16.125 9.5C16.125 9.20163 16.0065 8.91548 15.7955 8.70451C15.5845 8.49353 15.2984 8.375 15 8.375H10.125V3.5C10.125 3.20163 10.0065 2.91548 9.7955 2.7045C9.58452 2.49353 9.29837 2.375 9 2.375C8.70163 2.375 8.41548 2.49353 8.20451 2.7045C7.99353 2.91548 7.875 3.20163 7.875 3.5V8.375H3C2.70163 8.375 2.41548 8.49353 2.2045 8.70451C1.99353 8.91548 1.875 9.20163 1.875 9.5C1.875 9.79837 1.99353 10.0845 2.2045 10.2955C2.41548 10.5065 2.70163 10.625 3 10.625H7.875V15.5Z" fill="currentColor"/>
</g>
</g>
</svg>
