<svg width="22" height="24" viewBox="0 0 22 24" fill="none" xmlns="http://www.w3.org/2000/svg">
<path fill-rule="evenodd" clip-rule="evenodd" d="M1.43244 1.4064C-1.3113e-07 2.8116 0 5.0748 0 9.6V14.4C0 18.9252 -1.3113e-07 21.1884 1.43244 22.5936C2.86489 23.9988 5.16878 24 9.77778 24H12.2222C16.8312 24 19.1363 24 20.5676 22.5936C21.9988 21.1872 22 18.9252 22 14.4V9.6C22 5.0748 22 2.8116 20.5676 1.4064C19.1351 0.00119991 16.8312 0 12.2222 0H9.77778C5.16878 0 2.86367 -2.57492e-07 1.43244 1.4064ZM6.11111 8.7C5.868 8.7 5.63484 8.79482 5.46293 8.9636C5.29102 9.13239 5.19444 9.36131 5.19444 9.6C5.19444 9.83869 5.29102 10.0676 5.46293 10.2364C5.63484 10.4052 5.868 10.5 6.11111 10.5H15.8889C16.132 10.5 16.3652 10.4052 16.5371 10.2364C16.709 10.0676 16.8056 9.83869 16.8056 9.6C16.8056 9.36131 16.709 9.13239 16.5371 8.9636C16.3652 8.79482 16.132 8.7 15.8889 8.7H6.11111ZM6.11111 13.5C5.868 13.5 5.63484 13.5948 5.46293 13.7636C5.29102 13.9324 5.19444 14.1613 5.19444 14.4C5.19444 14.6387 5.29102 14.8676 5.46293 15.0364C5.63484 15.2052 5.868 15.3 6.11111 15.3H12.2222C12.4653 15.3 12.6985 15.2052 12.8704 15.0364C13.0423 14.8676 13.1389 14.6387 13.1389 14.4C13.1389 14.1613 13.0423 13.9324 12.8704 13.7636C12.6985 13.5948 12.4653 13.5 12.2222 13.5H6.11111Z" fill="currentColor"/>
</svg>
