<svg width="20" height="21" viewBox="0 0 20 21" fill="none" xmlns="http://www.w3.org/2000/svg">
<g id="ph:star-fill">
<path id="Vector" d="M18.3039 9.47274L14.7883 12.5063L15.8594 17.0431C15.9185 17.2893 15.9033 17.5476 15.8157 17.7852C15.728 18.0229 15.572 18.2292 15.3672 18.3782C15.1623 18.5272 14.918 18.6121 14.6649 18.6222C14.4118 18.6324 14.1614 18.5673 13.9453 18.4352L10 16.0071L6.05236 18.4352C5.83628 18.5666 5.58619 18.631 5.33356 18.6205C5.08093 18.61 4.83706 18.5249 4.63267 18.3761C4.42828 18.2272 4.27249 18.0212 4.18494 17.784C4.09738 17.5468 4.08197 17.289 4.14064 17.0431L5.21564 12.5063L1.70001 9.47274C1.50884 9.30752 1.37058 9.08963 1.3025 8.84629C1.23442 8.60296 1.23954 8.34496 1.31721 8.10452C1.39489 7.86407 1.54168 7.65184 1.73925 7.49432C1.93683 7.33681 2.17643 7.24099 2.42814 7.21884L7.03751 6.84696L8.81564 2.54384C8.91188 2.30932 9.07569 2.10872 9.28624 1.96754C9.49679 1.82636 9.74456 1.75098 9.99806 1.75098C10.2516 1.75098 10.4993 1.82636 10.7099 1.96754C10.9204 2.10872 11.0842 2.30932 11.1805 2.54384L12.9578 6.84696L17.5672 7.21884C17.8194 7.24017 18.0597 7.33545 18.258 7.49275C18.4563 7.65005 18.6038 7.86236 18.6819 8.1031C18.7601 8.34383 18.7655 8.60228 18.6974 8.84606C18.6293 9.08984 18.4908 9.30811 18.2992 9.47352L18.3039 9.47274Z" fill="#4F4F4F"/>
</g>
</svg>
